<svg width="70.668701" height="100.361816" viewBox="0 0 70.6687 100.362" fill="none" xmlns="http://www.w3.org/2000/svg" xmlns:xlink="http://www.w3.org/1999/xlink">
	<desc>
			Created with Pixso.
	</desc>
	<defs>
		<clipPath id="clip0_112">
			<rect id="Frame" width="70.668732" height="100.361847" fill="white" fill-opacity="0"/>
		</clipPath>
		<linearGradient x1="-9.786303" y1="36.709129" x2="80.454994" y2="66.110146" id="paint_linear_0_114_0" gradientUnits="userSpaceOnUse">
			<stop stop-color="#6CBCFC"/>
			<stop offset="0.171300" stop-color="#5EABFC"/>
			<stop offset="0.408400" stop-color="#509AFC"/>
			<stop offset="0.669800" stop-color="#4890FC"/>
			<stop offset="1.000000" stop-color="#458DFC"/>
		</linearGradient>
		<linearGradient x1="-5.504972" y1="-22.581406" x2="58.738068" y2="8.440598" id="paint_linear_0_117_0" gradientUnits="userSpaceOnUse">
			<stop stop-color="#CFE9FF"/>
			<stop offset="1.000000" stop-color="#A1D6FB"/>
		</linearGradient>
		<linearGradient x1="14.770039" y1="2.725105" x2="55.791664" y2="2.725105" id="paint_linear_0_118_0" gradientUnits="userSpaceOnUse">
			<stop stop-color="#B0F4FF"/>
			<stop offset="1.000000" stop-color="#69DCFC"/>
		</linearGradient>
		<linearGradient x1="14.891953" y1="30.856060" x2="25.196548" y2="44.194565" id="paint_linear_0_121_0" gradientUnits="userSpaceOnUse">
			<stop stop-color="#6CBCFC"/>
			<stop offset="1.000000" stop-color="#458DFC"/>
		</linearGradient>
		<linearGradient x1="13.774549" y1="31.724186" x2="24.079203" y2="45.062740" id="paint_linear_0_122_0" gradientUnits="userSpaceOnUse">
			<stop stop-color="#B0F4FF"/>
			<stop offset="0.099438" stop-color="#A1EFFE"/>
			<stop offset="0.299400" stop-color="#88E7FD"/>
			<stop offset="0.509500" stop-color="#77E1FD"/>
			<stop offset="0.734400" stop-color="#6CDDFC"/>
			<stop offset="1.000000" stop-color="#69DCFC"/>
		</linearGradient>
		<linearGradient x1="30.496094" y1="28.049452" x2="53.315693" y2="28.040636" id="paint_linear_0_123_0" gradientUnits="userSpaceOnUse">
			<stop stop-color="#6CBCFC"/>
			<stop offset="1.000000" stop-color="#458DFC"/>
		</linearGradient>
		<linearGradient x1="30.500278" y1="32.119621" x2="45.457573" y2="32.119621" id="paint_linear_0_124_0" gradientUnits="userSpaceOnUse">
			<stop stop-color="#6CBCFC"/>
			<stop offset="1.000000" stop-color="#458DFC"/>
		</linearGradient>
		<linearGradient x1="30.505287" y1="36.985687" x2="60.688049" y2="36.985687" id="paint_linear_0_125_0" gradientUnits="userSpaceOnUse">
			<stop stop-color="#6CBCFC"/>
			<stop offset="1.000000" stop-color="#458DFC"/>
		</linearGradient>
		<linearGradient x1="10.656565" y1="50.632172" x2="60.096458" y2="50.632172" id="paint_linear_0_126_0" gradientUnits="userSpaceOnUse">
			<stop stop-color="#6CBCFC"/>
			<stop offset="1.000000" stop-color="#458DFC"/>
		</linearGradient>
		<linearGradient x1="30.510143" y1="41.749630" x2="60.692894" y2="41.749630" id="paint_linear_0_127_0" gradientUnits="userSpaceOnUse">
			<stop stop-color="#6CBCFC"/>
			<stop offset="1.000000" stop-color="#458DFC"/>
		</linearGradient>
	</defs>
	<rect id="Frame" width="70.668732" height="100.361847" fill="#FFFFFF" fill-opacity="0"/>
	<g clip-path="url(#clip0_112)">
		<path id="Vector" d="M70.66 95.55C70.66 98.17 68.55 100.3 65.94 100.3L4.83 100.37C2.75 100.37 0.98 99.03 0.34 97.16C0.18 96.68 0.09 96.17 0.09 95.64L0 7.27C0 4.65 2.11 2.52 4.72 2.52L60.84 2.46L65.83 2.45C68.44 2.45 70.57 4.57 70.57 7.19L70.66 95.55Z" fill="url(#paint_linear_0_114_0)" fill-opacity="1.000000" fill-rule="nonzero"/>
		<path id="Vector" d="M64.33 95.04L6.42 95.1C5.02 95.1 3.88 93.96 3.88 92.55L3.79 10.31C3.79 8.9 4.93 7.76 6.34 7.76L64.23 7.7C65.64 7.7 66.78 8.84 66.78 10.25L66.86 92.49C66.87 93.89 65.74 95.04 64.33 95.04Z" fill="#E7E7E7" fill-opacity="1.000000" fill-rule="nonzero"/>
		<path id="Vector" d="M56.2 14.48L13.96 14.54C12.57 14.54 11.42 13.4 11.42 12L11.41 4.94C11.41 3.53 12.55 2.39 13.95 2.39L56.19 2.34C57.59 2.34 58.73 3.48 58.73 4.88L58.74 11.94C58.73 13.34 57.6 14.48 56.2 14.48ZM13.95 3.68C13.26 3.68 12.7 4.24 12.7 4.93L12.71 11.99C12.71 12.67 13.27 13.23 13.95 13.23L56.2 13.19C56.88 13.19 57.44 12.63 57.44 11.94L57.43 4.88C57.43 4.2 56.87 3.64 56.19 3.64L13.95 3.68Z" fill="url(#paint_linear_0_117_0)" fill-opacity="1.000000" fill-rule="nonzero"/>
		<path id="Vector" d="M55 5.4L15.56 5.44C15.12 5.44 14.78 5.09 14.78 4.65L14.78 0.83C14.78 0.39 15.12 0.04 15.56 0.04L54.99 0C55.43 0 55.78 0.35 55.78 0.78L55.78 4.61C55.79 5.05 55.44 5.4 55 5.4Z" fill="url(#paint_linear_0_118_0)" fill-opacity="1.000000" fill-rule="nonzero"/>
		<path id="Vector" d="M15.6 5.44L54.97 5.4C55.42 5.4 55.79 5.03 55.79 4.58L55.79 2.7L14.77 2.75L14.77 4.62C14.77 5.08 15.14 5.44 15.6 5.44Z" fill="#58D6F4" fill-opacity="1.000000" fill-rule="nonzero"/>
		<path id="Vector" d="M29.43 85.79L26.03 65.12L23.27 74.11L15.37 74.12C14.89 74.12 14.5 73.74 14.5 73.26C14.5 72.77 14.89 72.39 15.37 72.39L22 72.38L26.55 57.57L29.96 78.29L34.38 64.06L36.73 70.8L42.02 57.94L47.17 78.35L49.1 71.85L54.78 71.85C55.26 71.85 55.65 72.23 55.65 72.71C55.65 73.19 55.26 73.58 54.78 73.58L50.39 73.59L47.03 84.84L41.63 63.44L36.59 75.67L34.46 69.59L29.43 85.79Z" fill="#58D6F4" fill-opacity="1.000000" fill-rule="nonzero"/>
		<path id="Vector" d="M23.58 45.94L12.48 45.95C10.69 45.95 9.22 44.48 9.22 42.69L9.2 27.12C9.2 25.33 10.66 23.85 12.45 23.85L23.55 23.85C25.34 23.85 26.81 25.31 26.81 27.1L26.83 42.67C26.83 44.47 25.37 45.93 23.58 45.94ZM12.44 24.8C11.17 24.8 10.14 25.84 10.14 27.12L10.15 42.69C10.15 43.97 11.19 45 12.47 45L23.57 44.99C24.85 44.99 25.88 43.95 25.88 42.67L25.86 27.1C25.86 25.83 24.82 24.79 23.55 24.79L12.44 24.8Z" fill="url(#paint_linear_0_121_0)" fill-opacity="1.000000" fill-rule="nonzero"/>
		<path id="Vector" d="M18.02 42.95C23.27 42.94 24.9 39.9 24.9 39.9C24.66 39.6 24.37 39.34 23.96 39.08C22.58 38.18 21.48 37.79 21.01 37.41C20.54 37.03 20.28 36.48 20.28 36.48L19.99 36.65C19.99 36.65 19.82 36.05 19.91 35.13C19.91 35.13 20.32 35.02 20.63 33.63C21.12 33.73 21.69 32.48 21.42 32.03C21.25 31.73 21.04 31.76 20.89 31.83C21.04 31.2 21.71 27.76 18.01 27.76C14.3 27.76 14.98 31.2 15.13 31.83C14.98 31.76 14.78 31.73 14.6 32.03C14.33 32.48 14.91 33.73 15.4 33.63C15.71 35.02 16.13 35.12 16.13 35.12C16.23 36.03 16.05 36.64 16.05 36.64L15.76 36.47C15.76 36.47 15.5 37.01 15.03 37.4C14.56 37.78 13.46 38.18 12.08 39.08C11.67 39.34 11.37 39.6 11.14 39.9C11.13 39.92 12.77 42.96 18.02 42.95Z" fill="url(#paint_linear_0_122_0)" fill-opacity="1.000000" fill-rule="nonzero"/>
		<path id="Vector" d="M52.59 28.81L31.22 28.84C30.81 28.84 30.49 28.51 30.49 28.11L30.49 27.99C30.49 27.59 30.81 27.26 31.22 27.26L52.59 27.24C52.99 27.24 53.32 27.56 53.32 27.96L53.32 28.09C53.32 28.49 52.98 28.81 52.59 28.81Z" fill="url(#paint_linear_0_123_0)" fill-opacity="1.000000" fill-rule="nonzero"/>
		<path id="Vector" d="M44.73 32.89L31.22 32.91C30.81 32.91 30.49 32.59 30.49 32.18L30.49 32.06C30.49 31.66 30.81 31.34 31.22 31.34L44.73 31.32C45.13 31.32 45.45 31.64 45.45 32.04L45.45 32.17C45.45 32.57 45.13 32.89 44.73 32.89Z" fill="url(#paint_linear_0_124_0)" fill-opacity="1.000000" fill-rule="nonzero"/>
		<g opacity="0.600000">
			<path id="Vector" d="M59.96 37.75L31.22 37.78C30.82 37.78 30.5 37.46 30.5 37.05L30.5 36.93C30.5 36.53 30.82 36.21 31.22 36.21L59.96 36.17C60.36 36.17 60.69 36.49 60.69 36.9L60.69 37.02C60.68 37.42 60.36 37.75 59.96 37.75Z" fill="url(#paint_linear_0_125_0)" fill-opacity="1.000000" fill-rule="nonzero"/>
		</g>
		<g opacity="0.600000">
			<path id="Vector" d="M59.34 51.38L11.4 51.44C10.99 51.44 10.65 51.1 10.65 50.68L10.65 50.61C10.65 50.2 10.98 49.86 11.4 49.86L59.34 49.81C59.75 49.81 60.09 50.14 60.09 50.56L60.09 50.63C60.09 51.05 59.75 51.38 59.34 51.38Z" fill="url(#paint_linear_0_126_0)" fill-opacity="1.000000" fill-rule="nonzero"/>
		</g>
		<g opacity="0.600000">
			<path id="Vector" d="M59.96 42.51L31.22 42.55C30.82 42.55 30.5 42.22 30.5 41.82L30.5 41.7C30.5 41.29 30.82 40.97 31.22 40.97L59.96 40.94C60.36 40.94 60.69 41.26 60.69 41.66L60.69 41.78C60.69 42.19 60.36 42.51 59.96 42.51Z" fill="url(#paint_linear_0_127_0)" fill-opacity="1.000000" fill-rule="nonzero"/>
		</g>
	</g>
</svg>
