<svg width="84.285767" height="74.966797" viewBox="0 0 84.2858 74.9668" fill="none" xmlns="http://www.w3.org/2000/svg" xmlns:xlink="http://www.w3.org/1999/xlink">
	<desc>
			Created with Pixso.
	</desc>
	<defs>
		<clipPath id="clip0_155">
			<rect id="Frame" width="84.285713" height="74.966820" fill="white" fill-opacity="0"/>
		</clipPath>
		<linearGradient x1="13.970028" y1="44.846088" x2="70.033989" y2="44.846088" id="paint_linear_0_156_0" gradientUnits="userSpaceOnUse">
			<stop stop-color="#B0F4FF"/>
			<stop offset="1.000000" stop-color="#69DCFC"/>
		</linearGradient>
		<linearGradient x1="-0.000099" y1="44.855545" x2="13.969975" y2="44.855545" id="paint_linear_0_157_0" gradientUnits="userSpaceOnUse">
			<stop stop-color="#6CBCFC"/>
			<stop offset="1.000000" stop-color="#458DFC"/>
		</linearGradient>
		<linearGradient x1="22.120949" y1="7.383953" x2="61.206577" y2="7.383953" id="paint_linear_0_161_0" gradientUnits="userSpaceOnUse">
			<stop stop-color="#6CBCFC"/>
			<stop offset="1.000000" stop-color="#458DFC"/>
		</linearGradient>
		<linearGradient x1="70.029358" y1="44.849449" x2="84.286438" y2="44.849449" id="paint_linear_0_162_0" gradientUnits="userSpaceOnUse">
			<stop stop-color="#6CBCFC"/>
			<stop offset="1.000000" stop-color="#458DFC"/>
		</linearGradient>
		<linearGradient x1="28.832588" y1="44.859356" x2="55.449310" y2="44.859356" id="paint_linear_0_164_0" gradientUnits="userSpaceOnUse">
			<stop stop-color="#6CBCFC"/>
			<stop offset="1.000000" stop-color="#458DFC"/>
		</linearGradient>
	</defs>
	<rect id="Frame" width="84.285713" height="74.966820" fill="#FFFFFF" fill-opacity="0"/>
	<g clip-path="url(#clip0_155)">
		<path id="Vector" d="M13.96 14.76L70.03 14.76L70.03 74.93L13.96 74.93L13.96 14.76Z" fill="url(#paint_linear_0_156_0)" fill-opacity="1.000000" fill-rule="evenodd"/>
		<path id="Vector" d="M13.73 14.76C13.8 14.76 13.87 14.79 13.96 14.81C13.96 34.83 13.96 54.85 13.96 74.9C9.62 75.24 5.96 74.15 3.05 71.35C0.99 69.36 -0.01 67.02 -0.01 64.37C-0.01 54.99 -0.01 45.62 -0.01 36.25C-0.01 32.67 -0.01 29.09 -0.01 25.52C-0.01 21.19 2.31 18.05 6.6 15.93C8.8 14.84 11.25 14.68 13.73 14.76Z" fill="url(#paint_linear_0_157_0)" fill-opacity="1.000000" fill-rule="nonzero"/>
		<path id="Vector" d="M60.24 14.75C62.74 14.75 62.99 14.75 65.49 14.75C65.49 34.83 65.49 54.85 65.49 74.91C48.46 74.91 35.59 74.91 18.51 74.91C18.51 54.86 18.51 34.84 18.51 14.77C21 14.77 21.54 14.77 24.08 14.77C24.08 14.51 24.08 14.32 24.08 14.14C24.08 11.98 24.09 9.82 24.08 7.66C24.06 6.15 24.46 4.84 25.64 3.81C26.47 3.1 27.43 2.73 28.51 2.73C31.87 2.72 35.21 2.72 38.57 2.72C44.2 2.72 49.85 2.73 55.48 2.72C56.96 2.72 58.19 3.2 59.16 4.33C59.93 5.22 60.22 6.28 60.22 7.46C60.21 9.73 60.22 12 60.22 14.27C60.21 14.4 60.22 14.54 60.24 14.75ZM30.14 14.75C30.37 14.75 30.54 14.75 30.72 14.75C33.38 14.75 36.06 14.75 38.73 14.75C43.72 14.75 48.72 14.75 53.7 14.76C54.1 14.76 54.19 14.63 54.19 14.25C54.17 12.56 54.19 10.87 54.19 9.18C54.19 9.04 54.17 8.91 54.15 8.76C46.13 8.76 38.15 8.76 30.14 8.76C30.14 10.75 30.14 12.71 30.14 14.75Z" fill="#E7E7E7" fill-opacity="1.000000" fill-rule="nonzero"/>
		<mask id="mask0_160" mask-type="alpha" maskUnits="userSpaceOnUse" x="18.511963" y="2.726074" width="46.981201" height="72.192383">
			<path id="Vector" d="M60.24 14.75C62.74 14.75 62.99 14.75 65.49 14.75C65.49 34.83 65.49 54.85 65.49 74.91C48.46 74.91 35.59 74.91 18.51 74.91C18.51 54.86 18.51 34.84 18.51 14.77C21 14.77 21.54 14.77 24.08 14.77C24.08 14.51 24.08 14.32 24.08 14.14C24.08 11.98 24.09 9.82 24.08 7.66C24.06 6.15 24.46 4.84 25.64 3.81C26.47 3.1 27.43 2.73 28.51 2.73C31.87 2.72 35.21 2.72 38.57 2.72C44.2 2.72 49.85 2.73 55.48 2.72C56.96 2.72 58.19 3.2 59.16 4.33C59.93 5.22 60.22 6.28 60.22 7.46C60.21 9.73 60.22 12 60.22 14.27C60.21 14.4 60.22 14.54 60.24 14.75ZM30.14 14.75C30.37 14.75 30.54 14.75 30.72 14.75C33.38 14.75 36.06 14.75 38.73 14.75C43.72 14.75 48.72 14.75 53.7 14.76C54.1 14.76 54.19 14.63 54.19 14.25C54.17 12.56 54.19 10.87 54.19 9.18C54.19 9.04 54.17 8.91 54.15 8.76C46.13 8.76 38.15 8.76 30.14 8.76C30.14 10.75 30.14 12.71 30.14 14.75Z" fill="#F7F9FC" fill-opacity="1.000000" fill-rule="nonzero"/>
		</mask>
		<g mask="url(#mask0_160)">
			<path id="Vector" d="M22.12 0L61.2 0L61.2 14.77L22.12 14.77L22.12 0Z" fill="url(#paint_linear_0_161_0)" fill-opacity="1.000000" fill-rule="evenodd"/>
		</g>
		<path id="Vector" d="M84.28 25.36C84.28 21.38 82.11 18.41 78.24 16.25C75.86 14.93 73.16 14.68 70.4 14.74C69.97 14.75 70.03 14.97 70.03 15.2C70.03 22.16 70.03 29.11 70.03 36.07C70.03 48.3 70.03 60.52 70.02 72.75C70.02 73.45 70.02 74.16 70.02 74.92C71.76 74.98 73.42 74.99 75.04 74.6C80.53 73.31 84.27 69.22 84.27 64.4C84.29 51.39 84.28 38.37 84.28 25.36Z" fill="url(#paint_linear_0_162_0)" fill-opacity="1.000000" fill-rule="nonzero"/>
		<path id="Vector" d="M46.58 49.29C46.58 50.53 46.58 51.71 46.58 52.9C46.58 54.25 46.58 55.59 46.58 56.92C46.58 57.73 46.17 58.15 45.38 58.15C43.2 58.16 41.01 58.16 38.83 58.15C38.1 58.15 37.7 57.7 37.7 56.93C37.7 54.54 37.7 52.14 37.7 49.74C37.7 49.61 37.7 49.46 37.7 49.29C37.51 49.29 37.38 49.29 37.23 49.29C34.87 49.29 32.5 49.29 30.15 49.29C29.21 49.29 28.82 48.91 28.82 47.97C28.82 45.89 28.82 43.82 28.82 41.74C28.82 40.79 29.2 40.41 30.14 40.41C32.49 40.41 34.83 40.41 37.18 40.41C37.34 40.41 37.48 40.41 37.69 40.41C37.69 40.26 37.69 40.13 37.69 40.01C37.69 37.61 37.69 35.21 37.69 32.81C37.69 31.92 38.08 31.54 38.97 31.54C41.05 31.54 43.13 31.54 45.21 31.54C46.18 31.54 46.56 31.91 46.56 32.9C46.57 35.28 46.56 37.65 46.56 40.03C46.56 40.14 46.56 40.26 46.56 40.42C46.72 40.42 46.85 40.42 46.98 40.42C49.37 40.42 51.77 40.42 54.17 40.43C55.05 40.43 55.42 40.82 55.42 41.7C55.42 43.79 55.42 45.87 55.42 47.96C55.42 48.92 55.06 49.29 54.12 49.29C51.73 49.29 49.34 49.29 46.97 49.3C46.87 49.29 46.75 49.29 46.58 49.29Z" fill="url(#paint_linear_0_164_0)" fill-opacity="1.000000" fill-rule="nonzero"/>
	</g>
</svg>
